<?xml version="1.0" standalone="no"?>
<!DOCTYPE svg PUBLIC "-//W3C//DTD SVG 20010904//EN"
 "http://www.w3.org/TR/2001/REC-SVG-20010904/DTD/svg10.dtd">
<svg version="1.0" xmlns="http://www.w3.org/2000/svg"
 width="300.000000pt" height="225.000000pt" viewBox="0 0 300.000000 225.000000"
 preserveAspectRatio="xMidYMid meet">
<metadata>
Created by potrace 1.10, written by Peter Selinger 2001-2011
</metadata>
<g transform="translate(0.000000,225.000000) scale(0.100000,-0.100000)"
fill="#000000" stroke="none">
<path d="M1405 1377 c-68 -18 -95 -34 -95 -57 0 -72 295 -90 398 -24 34 22 27
43 -25 66 -59 26 -204 34 -278 15z m263 -36 c72 -39 -142 -80 -263 -50 -67 17
-76 35 -23 49 24 6 48 13 53 15 22 10 211 -2 233 -14z"/>
<path d="M1160 1098 c-122 -52 -150 -74 -150 -118 0 -15 8 -37 18 -47 25 -28
143 -76 155 -64 7 7 4 13 -9 17 -119 44 -153 71 -138 112 19 54 42 51 269 -38
116 -45 215 -82 222 -83 12 0 433 172 446 183 4 4 -34 24 -85 46 -51 21 -97
41 -101 43 -5 2 -1 -8 8 -23 16 -24 16 -28 1 -51 -22 -33 -59 -47 -90 -35 -19
7 -28 4 -43 -12 -32 -36 -89 -58 -148 -58 -93 0 -163 42 -213 129 l-27 47
-115 -48z m211 -113 c16 -9 29 -20 29 -24 0 -8 -93 25 -212 76 -38 16 -50 33
-24 33 8 0 33 9 57 19 l43 19 38 -54 c22 -30 52 -61 69 -69z m519 90 l25 -13
-25 -10 c-85 -33 -141 -56 -187 -77 -28 -13 -80 -34 -116 -46 l-64 -23 -53 20
-52 20 84 0 c58 -1 90 3 101 13 10 7 17 10 17 6 0 -4 16 5 35 19 24 18 45 26
67 25 42 -3 72 13 95 51 19 33 35 36 73 15z"/>
<path d="M1726 1113 c-3 -10 -9 -24 -12 -30 -8 -18 31 -16 46 2 10 12 10 18 0
30 -16 20 -26 19 -34 -2z"/>
<path d="M1930 905 c-25 -12 -125 -55 -222 -95 l-177 -73 -128 52 c-71 29
-132 57 -137 61 -4 5 7 16 25 26 31 15 32 18 14 25 -38 15 -56 9 -104 -36 -26
-25 -53 -45 -59 -45 -6 0 -14 -4 -17 -10 -4 -6 5 -7 24 -4 27 6 29 4 24 -15
-8 -31 12 -26 40 11 l25 31 146 -60 146 -61 167 70 c93 38 196 81 231 95 58
23 73 36 55 46 -5 2 -28 -6 -53 -18z"/>
</g>
</svg>
